0
SECTION
2
HEADER
9
$INSUNITS
70
4
9
$ACADVER
1
AC1014
9
$HANDSEED
5
FFFF
0
ENDSEC
0
SECTION
2
TABLES
0
TABLE
2
VPORT
5
8
100
AcDbSymbolTable
0
ENDTAB
0
TABLE
2
LTYPE
5
5
100
AcDbSymbolTable
0
LTYPE
5
14
100
AcDbSymbolTableRecord
100
AcDbLinetypeTableRecord
2
BYBLOCK
70
0
0
LTYPE
5
15
100
AcDbSymbolTableRecord
100
AcDbLinetypeTableRecord
2
BYLAYER
70
0
0
ENDTAB
0
TABLE
2
LAYER
5
2
100
AcDbSymbolTable
70
2
0
LAYER
5
50
100
AcDbSymbolTableRecord
100
AcDbLayerTableRecord
2
0
70
0
6
CONTINUOUS
0
ENDTAB
0
TABLE
2
STYLE
5
3
100
AcDbSymbolTable
70
1
0
STYLE
5
11
100
AcDbSymbolTableRecord
100
AcDbTextStyleTableRecord
2
STANDARD
70
0
0
ENDTAB
0
TABLE
2
VIEW
5
6
100
AcDbSymbolTable
70
0
0
ENDTAB
0
TABLE
2
UCS
5
7
100
AcDbSymbolTable
70
0
0
ENDTAB
0
TABLE
2
APPID
5
9
100
AcDbSymbolTable
70
2
0
APPID
5
12
100
AcDbSymbolTableRecord
100
AcDbRegAppTableRecord
2
ACAD
70
0
0
ENDTAB
0
TABLE
2
DIMSTYLE
5
A
100
AcDbSymbolTable
70
1
0
ENDTAB
0
TABLE
2
BLOCK_RECORD
5
1
100
AcDbSymbolTable
70
1
0
BLOCK_RECORD
5
1F
100
AcDbSymbolTableRecord
100
AcDbBlockTableRecord
2
*MODEL_SPACE
0
BLOCK_RECORD
5
1B
100
AcDbSymbolTableRecord
100
AcDbBlockTableRecord
2
*PAPER_SPACE
0
ENDTAB
0
ENDSEC
0
SECTION
2
BLOCKS
0
BLOCK
5
20
100
AcDbEntity
100
AcDbBlockBegin
2
*MODEL_SPACE
0
ENDBLK
5
21
100
AcDbEntity
100
AcDbBlockEnd
0
BLOCK
5
1C
100
AcDbEntity
100
AcDbBlockBegin
2
*PAPER_SPACE
0
ENDBLK
5
1D
100
AcDbEntity
100
AcDbBlockEnd
0
ENDSEC
0
SECTION
2
ENTITIES
0
LINE
5
100
100
AcDbEntity
8
0
100
AcDbLine
10
24.166022251471585
20
7.0230950657835978
30
0
11
24.30218930038718
21
6.1719056045668017
31
0
0
LINE
5
101
100
AcDbEntity
8
0
100
AcDbLine
10
24.30218930038718
20
6.1719056045668017
30
0
11
25.49988412146039
21
3.3466355784907931
31
0
0
LINE
5
102
100
AcDbEntity
8
0
100
AcDbLine
10
25.49988412146039
20
3.3466355784907931
30
0
11
25.357713217445621
21
3.1584069559375667
31
0
0
LINE
5
103
100
AcDbEntity
8
0
100
AcDbLine
10
25.357713217445621
20
3.1584069559375667
30
0
11
25.357713217445621
21
2.5159922788207529
31
0
0
LINE
5
104
100
AcDbEntity
8
0
100
AcDbLine
10
25.357713217445621
20
2.5159922788207529
30
0
11
25.543082551016738
21
2.3559545366472823
31
0
0
LINE
5
105
100
AcDbEntity
8
0
100
AcDbLine
10
25.543082551016738
20
2.3559545366472823
30
0
11
25.543082551016738
21
-6.6423744067626718
31
0
0
LINE
5
106
100
AcDbEntity
8
0
100
AcDbLine
10
26.974580697189083
20
-7.065356438719844
30
0
11
26.206583575857529
21
-7.065356438719844
31
0
0
LINE
5
107
100
AcDbEntity
8
0
100
AcDbLine
10
25.543082551016738
20
-6.6423744067626718
30
0
11
25.639302781949439
21
-6.7754692291361032
31
0
0
ARC
5
108
100
AcDbEntity
8
0
100
AcDbCircle
10
26.206583575857529
20
-6.3653564387198447
30
0
40
0.69999999999999951
210
0
220
0
230
1
100
AcDbArc
50
215.86485816033399
51
270
0
SPLINE
5
109
100
AcDbEntity
8
0
100
AcDbSpline
70
4
71
3
72
8
73
4
74
0
42
0.000000001
43
0.0000000001
44
0.0000000001
40
0
40
0
40
0
40
0
40
1
40
1
40
1
40
1
41
1
41
1
41
1
41
1
10
24.166022251471585
20
7.0230950657835987
30
0
10
24.362054036376406
20
7.2124980216032135
30
0
10
25.577240502648731
20
7.3112434836703342
30
0
10
26.974580697189083
20
7.3112434836703342
30
0
0
LINE
5
110
100
AcDbEntity
8
0
100
AcDbLine
10
26.706173022215388
20
0.86625347371264927
30
0
11
26.706173022215388
21
-0.79298102122664815
31
0
0
SPLINE
5
111
100
AcDbEntity
8
0
100
AcDbSpline
70
4
71
3
72
8
73
4
74
0
42
0.000000001
43
0.0000000001
44
0.0000000001
40
0
40
0
40
0
40
0
40
1
40
1
40
1
40
1
41
1
41
1
41
1
41
1
10
26.974580697189083
20
0.93046358889044289
30
0
10
26.829089512981849
20
0.93046358889044356
30
0
10
26.768918562447844
20
0.91155335851604269
30
0
10
26.706173022215388
20
0.86625347371264927
30
0
0
SPLINE
5
112
100
AcDbEntity
8
0
100
AcDbSpline
70
4
71
3
72
8
73
4
74
0
42
0.000000001
43
0.0000000001
44
0.0000000001
40
0
40
0
40
0
40
0
40
1
40
1
40
1
40
1
41
1
41
1
41
1
41
1
10
26.974580697189083
20
-0.85760307280975501
30
0
10
26.867965274020492
20
-0.85760307280975501
30
0
10
26.742992237521889
20
-0.82605234886392476
30
0
10
26.706173022215388
20
-0.79298102122664815
30
0
0
LINE
5
113
100
AcDbEntity
8
0
100
AcDbLine
10
26.974580697189083
20
-7.065356438719844
30
0
11
26.974580697189083
21
7.3112434836703342
31
0
0
SPLINE
5
114
100
AcDbEntity
8
0
100
AcDbSpline
70
4
71
3
72
8
73
4
74
0
42
0.000000001
43
0.0000000001
44
0.0000000001
40
0
40
0
40
0
40
0
40
1
40
1
40
1
40
1
41
1
41
1
41
1
41
1
10
25.49988412146039
20
3.3466355784907984
30
0
10
25.90227555880606
20
3.4231875018771301
30
0
10
26.299215626078944
20
3.4364870937041103
30
0
10
26.974580697189083
20
3.4364870937041148
30
0
0
SPLINE
5
115
100
AcDbEntity
8
0
100
AcDbSpline
70
4
71
3
72
8
73
4
74
0
42
0.000000001
43
0.0000000001
44
0.0000000001
40
0
40
0
40
0
40
0
40
1
40
1
40
1
40
1
41
1
41
1
41
1
41
1
10
25.357713217445621
20
2.5159922788207529
30
0
10
25.52681671889108
20
2.5339594083152543
30
0
10
26.043423911893754
20
2.5430988883374255
30
0
10
26.974580697189083
20
2.5430988883374255
30
0
0
SPLINE
5
116
100
AcDbEntity
8
0
100
AcDbSpline
70
4
71
3
72
8
73
4
74
0
42
0.000000001
43
0.0000000001
44
0.0000000001
40
0
40
0
40
0
40
0
40
1
40
1
40
1
40
1
41
1
41
1
41
1
41
1
10
25.543082551016738
20
2.3559545366472823
30
0
10
25.591855391592787
20
2.3624256197638012
30
0
10
26.059133435851443
20
2.3754774363655611
30
0
10
26.974580697189083
20
2.3754774363655606
30
0
0
SPLINE
5
117
100
AcDbEntity
8
0
100
AcDbSpline
70
4
71
4
72
10
73
5
74
0
42
0.000000001
43
0.0000000001
44
0.0000000001
40
0
40
0
40
0
40
0
40
0
40
1
40
1
40
1
40
1
40
1
41
1
41
1
41
1
41
1
41
1
10
25.543082551016738
20
-6.6423744067626913
30
0
10
25.715150164942028
20
-6.6183281253355908
30
0
10
25.988261982140376
20
-6.6132868643602238
30
0
10
26.450578698486609
20
-6.6132868643602203
30
0
10
26.974580697189083
20
-6.6132868643602194
30
0
0
SPLINE
5
118
100
AcDbEntity
8
0
100
AcDbSpline
70
4
71
3
72
8
73
4
74
0
42
0.000000001
43
0.0000000001
44
0.0000000001
40
0
40
0
40
0
40
0
40
1
40
1
40
1
40
1
41
1
41
1
41
1
41
1
10
24.30218930038718
20
6.1719056045667928
30
0
10
24.911476080198266
20
6.3018652732457445
30
0
10
26.206160568464163
20
6.3542932503174736
30
0
10
26.974580697189083
20
6.3542932503174745
30
0
0
SPLINE
5
119
100
AcDbEntity
8
0
100
AcDbSpline
70
4
71
3
72
8
73
4
74
0
42
0.000000001
43
0.0000000001
44
0.0000000001
40
0
40
0
40
0
40
0
40
1
40
1
40
1
40
1
41
1
41
1
41
1
41
1
10
26.974580697189083
20
-0.85760307280975501
30
0
10
27.081196120357667
20
-0.85760307280975501
30
0
10
27.206169156856276
20
-0.82605234886392476
30
0
10
27.242988372162774
20
-0.79298102122664815
30
0
0
LINE
5
120
100
AcDbEntity
8
0
100
AcDbLine
10
26.974580697189083
20
-7.065356438719844
30
0
11
27.742577818520637
21
-7.065356438719844
31
0
0
ARC
5
121
100
AcDbEntity
8
0
100
AcDbCircle
10
27.742577818520637
20
-6.3653564387198447
30
0
40
0.69999999999999951
210
0
220
0
230
1
100
AcDbArc
50
270
51
324.13514183966578
0
LINE
5
122
100
AcDbEntity
8
0
100
AcDbLine
10
28.406078843361424
20
2.3559545366472823
30
0
11
28.406078843361424
21
-6.6423744067626718
31
0
0
LINE
5
123
100
AcDbEntity
8
0
100
AcDbLine
10
28.406078843361424
20
-6.6423744067626718
30
0
11
28.309858612428723
21
-6.7754692291361032
31
0
0
LINE
5
124
100
AcDbEntity
8
0
100
AcDbLine
10
27.242988372162774
20
0.86625347371264927
30
0
11
27.242988372162774
21
-0.7929810212266486
31
0
0
SPLINE
5
125
100
AcDbEntity
8
0
100
AcDbSpline
70
4
71
4
72
10
73
5
74
0
42
0.000000001
43
0.0000000001
44
0.0000000001
40
0
40
0
40
0
40
0
40
0
40
1
40
1
40
1
40
1
40
1
41
1
41
1
41
1
41
1
41
1
10
28.406078843361424
20
-6.6423744067626913
30
0
10
28.234011229436135
20
-6.6183281253355908
30
0
10
27.960899412237787
20
-6.6132868643602238
30
0
10
27.49858269589155
20
-6.6132868643602203
30
0
10
26.974580697189083
20
-6.6132868643602194
30
0
0
SPLINE
5
126
100
AcDbEntity
8
0
100
AcDbSpline
70
4
71
3
72
8
73
4
74
0
42
0.000000001
43
0.0000000001
44
0.0000000001
40
0
40
0
40
0
40
0
40
1
40
1
40
1
40
1
41
1
41
1
41
1
41
1
10
29.783139142906577
20
7.0230950657835987
30
0
10
29.587107358001752
20
7.2124980216032135
30
0
10
28.371920891729431
20
7.3112434836703342
30
0
10
26.974580697189083
20
7.3112434836703342
30
0
0
SPLINE
5
127
100
AcDbEntity
8
0
100
AcDbSpline
70
4
71
3
72
8
73
4
74
0
42
0.000000001
43
0.0000000001
44
0.0000000001
40
0
40
0
40
0
40
0
40
1
40
1
40
1
40
1
41
1
41
1
41
1
41
1
10
28.449277272917772
20
3.3466355784907984
30
0
10
28.046885835572102
20
3.4231875018771301
30
0
10
27.649945768299219
20
3.4364870937041103
30
0
10
26.974580697189083
20
3.4364870937041148
30
0
0
LINE
5
128
100
AcDbEntity
8
0
100
AcDbLine
10
29.783139142906577
20
7.0230950657835969
30
0
11
29.646972093990982
21
6.1719056045668017
31
0
0
SPLINE
5
129
100
AcDbEntity
8
0
100
AcDbSpline
70
4
71
3
72
8
73
4
74
0
42
0.000000001
43
0.0000000001
44
0.0000000001
40
0
40
0
40
0
40
0
40
1
40
1
40
1
40
1
41
1
41
1
41
1
41
1
10
28.591448176932541
20
2.5159922788207529
30
0
10
28.422344675487082
20
2.5339594083152543
30
0
10
27.905737482484408
20
2.5430988883374255
30
0
10
26.974580697189083
20
2.5430988883374255
30
0
0
LINE
5
130
100
AcDbEntity
8
0
100
AcDbLine
10
29.646972093990982
20
6.1719056045668017
30
0
11
28.449277272917772
21
3.3466355784907922
31
0
0
LINE
5
131
100
AcDbEntity
8
0
100
AcDbLine
10
28.591448176932541
20
2.515992278820752
30
0
11
28.406078843361424
21
2.3559545366472823
31
0
0
SPLINE
5
132
100
AcDbEntity
8
0
100
AcDbSpline
70
4
71
3
72
8
73
4
74
0
42
0.000000001
43
0.0000000001
44
0.0000000001
40
0
40
0
40
0
40
0
40
1
40
1
40
1
40
1
41
1
41
1
41
1
41
1
10
28.406078843361424
20
2.3559545366472823
30
0
10
28.357306002785375
20
2.3624256197638012
30
0
10
27.890027958526716
20
2.3754774363655611
30
0
10
26.974580697189083
20
2.3754774363655606
30
0
0
LINE
5
133
100
AcDbEntity
8
0
100
AcDbLine
10
28.449277272917772
20
3.3466355784907922
30
0
11
28.591448176932541
21
3.1584069559375658
31
0
0
SPLINE
5
134
100
AcDbEntity
8
0
100
AcDbSpline
70
4
71
3
72
8
73
4
74
0
42
0.000000001
43
0.0000000001
44
0.0000000001
40
0
40
0
40
0
40
0
40
1
40
1
40
1
40
1
41
1
41
1
41
1
41
1
10
26.974580697189083
20
0.93046358889044289
30
0
10
27.120071881396314
20
0.93046358889044356
30
0
10
27.180242831930318
20
0.91155335851604269
30
0
10
27.242988372162774
20
0.86625347371264927
30
0
0
SPLINE
5
135
100
AcDbEntity
8
0
100
AcDbSpline
70
4
71
3
72
8
73
4
74
0
42
0.000000001
43
0.0000000001
44
0.0000000001
40
0
40
0
40
0
40
0
40
1
40
1
40
1
40
1
41
1
41
1
41
1
41
1
10
29.646972093990982
20
6.1719056045667928
30
0
10
29.037685314179896
20
6.3018652732457445
30
0
10
27.743000825913995
20
6.3542932503174736
30
0
10
26.974580697189083
20
6.3542932503174745
30
0
0
LINE
5
136
100
AcDbEntity
8
0
100
AcDbLine
10
28.591448176932541
20
3.1584069559375658
30
0
11
28.591448176932541
21
2.515992278820752
31
0
0
ENDSEC
0
SECTION
2
OBJECTS
0
DICTIONARY
5
C
100
AcDbDictionary
3
ACAD_GROUP
350
D
3
ACAD_MLINESTYLE
350
17
0
DICTIONARY
5
D
100
AcDbDictionary
0
DICTIONARY
5
1A
330
C
100
AcDbDictionary
0
DICTIONARY
5
17
100
AcDbDictionary
0
ENDSEC
0
EOF
